<mxfile host="app.diagrams.net" modified="2021-12-01T06:14:43.122Z" agent="5.0 (Windows NT 10.0; Win64; x64) AppleWebKit/537.36 (KHTML, like Gecko) Chrome/96.0.4664.45 Safari/537.36" etag="WX3tZ95GK2-gzHNa_yLd" version="15.8.8" type="github">
  <diagram id="1k_q50N9jEchC8ST5tS7" name="Page-1">
    <mxGraphModel dx="1117" dy="626" grid="1" gridSize="10" guides="1" tooltips="1" connect="1" arrows="1" fold="1" page="1" pageScale="1" pageWidth="850" pageHeight="1100" math="0" shadow="0">
      <root>
        <mxCell id="0" />
        <mxCell id="1" parent="0" />
        <mxCell id="TsvvHcdtUDHw0XMrt-qg-1" value="Actor" style="shape=umlActor;verticalLabelPosition=bottom;verticalAlign=top;html=1;overflow=visible;noLabel=1;fillColor=#B2C9AB;strokeColor=#788AA3;fontColor=#46495D;" vertex="1" parent="1">
          <mxGeometry x="90" y="345" width="80" height="130" as="geometry" />
        </mxCell>
        <mxCell id="TsvvHcdtUDHw0XMrt-qg-2" value="Actor" style="shape=umlActor;verticalLabelPosition=bottom;verticalAlign=top;html=1;noLabel=1;fillColor=#B2C9AB;strokeColor=#788AA3;fontColor=#46495D;" vertex="1" parent="1">
          <mxGeometry x="640" y="345" width="80" height="135" as="geometry" />
        </mxCell>
        <mxCell id="TsvvHcdtUDHw0XMrt-qg-11" value="" style="html=1;shadow=0;dashed=0;align=center;verticalAlign=middle;shape=mxgraph.arrows2.bendArrow;dy=15;dx=38;notch=0;arrowHead=55;rounded=0;direction=east;flipH=0;fillColor=#B2C9AB;strokeColor=#788AA3;fontColor=#46495D;" vertex="1" parent="1">
          <mxGeometry x="120" y="140" width="190" height="160" as="geometry" />
        </mxCell>
        <mxCell id="TsvvHcdtUDHw0XMrt-qg-12" value="" style="rounded=0;whiteSpace=wrap;html=1;fillColor=#B2C9AB;strokeColor=#788AA3;fontColor=#46495D;" vertex="1" parent="1">
          <mxGeometry x="320" y="110" width="200" height="100" as="geometry" />
        </mxCell>
        <mxCell id="TsvvHcdtUDHw0XMrt-qg-14" value="" style="html=1;shadow=0;dashed=0;align=center;verticalAlign=middle;shape=mxgraph.arrows2.bendArrow;dy=15;dx=38;notch=0;arrowHead=55;rounded=0;direction=west;flipH=0;fillColor=#B2C9AB;strokeColor=#788AA3;fontColor=#46495D;" vertex="1" parent="1">
          <mxGeometry x="515" y="550" width="190" height="160" as="geometry" />
        </mxCell>
        <mxCell id="TsvvHcdtUDHw0XMrt-qg-16" value="" style="rounded=0;whiteSpace=wrap;html=1;fillColor=#B2C9AB;strokeColor=#788AA3;fontColor=#46495D;" vertex="1" parent="1">
          <mxGeometry x="300" y="640" width="200" height="100" as="geometry" />
        </mxCell>
        <mxCell id="TsvvHcdtUDHw0XMrt-qg-18" value="" style="html=1;shadow=0;dashed=0;align=center;verticalAlign=middle;shape=mxgraph.arrows2.bendArrow;dy=15;dx=38;notch=0;arrowHead=55;rounded=0;direction=north;flipH=0;fillColor=#B2C9AB;strokeColor=#788AA3;fontColor=#46495D;" vertex="1" parent="1">
          <mxGeometry x="100" y="520" width="160" height="190" as="geometry" />
        </mxCell>
        <mxCell id="TsvvHcdtUDHw0XMrt-qg-19" value="" style="html=1;shadow=0;dashed=0;align=center;verticalAlign=middle;shape=mxgraph.arrows2.bendArrow;dy=15;dx=38;notch=0;arrowHead=55;rounded=0;direction=south;flipH=0;fillColor=#B2C9AB;strokeColor=#788AA3;fontColor=#46495D;" vertex="1" parent="1">
          <mxGeometry x="550" y="140" width="160" height="170" as="geometry" />
        </mxCell>
        <mxCell id="TsvvHcdtUDHw0XMrt-qg-21" value="&lt;h2&gt;Alice&lt;/h2&gt;" style="text;html=1;align=center;verticalAlign=middle;resizable=0;points=[];autosize=1;strokeColor=none;fillColor=none;fontColor=#46495D;" vertex="1" parent="1">
          <mxGeometry x="100" y="450" width="60" height="50" as="geometry" />
        </mxCell>
        <mxCell id="TsvvHcdtUDHw0XMrt-qg-22" value="&lt;h2&gt;Bob&lt;/h2&gt;" style="text;html=1;align=center;verticalAlign=middle;resizable=0;points=[];autosize=1;strokeColor=none;fillColor=none;fontColor=#46495D;" vertex="1" parent="1">
          <mxGeometry x="655" y="469" width="50" height="50" as="geometry" />
        </mxCell>
        <mxCell id="TsvvHcdtUDHw0XMrt-qg-23" value="&amp;nbsp; Bob&#39;s Public Key" style="text;html=1;align=center;verticalAlign=middle;resizable=0;points=[];autosize=1;strokeColor=none;fillColor=none;fontColor=#46495D;" vertex="1" parent="1">
          <mxGeometry x="140" y="160" width="110" height="20" as="geometry" />
        </mxCell>
        <mxCell id="TsvvHcdtUDHw0XMrt-qg-24" value="&amp;nbsp;Decrypted Using&amp;nbsp;" style="text;html=1;align=center;verticalAlign=middle;resizable=0;points=[];autosize=1;strokeColor=none;fillColor=none;fontColor=#46495D;" vertex="1" parent="1">
          <mxGeometry x="575" y="146" width="110" height="20" as="geometry" />
        </mxCell>
        <mxCell id="TsvvHcdtUDHw0XMrt-qg-25" value="Bob&#39;s Private Key" style="text;html=1;align=center;verticalAlign=middle;resizable=0;points=[];autosize=1;strokeColor=none;fillColor=none;fontColor=#46495D;rotation=90;" vertex="1" parent="1">
          <mxGeometry x="627" y="210" width="110" height="20" as="geometry" />
        </mxCell>
        <mxCell id="TsvvHcdtUDHw0XMrt-qg-26" value="Encrypted Using" style="text;html=1;align=center;verticalAlign=middle;resizable=0;points=[];autosize=1;strokeColor=none;fillColor=none;fontColor=#46495D;rotation=-90;" vertex="1" parent="1">
          <mxGeometry x="86" y="225" width="100" height="20" as="geometry" />
        </mxCell>
        <mxCell id="TsvvHcdtUDHw0XMrt-qg-27" value="Encrypted Using" style="text;html=1;align=center;verticalAlign=middle;resizable=0;points=[];autosize=1;strokeColor=none;fillColor=none;fontColor=#46495D;rotation=90;" vertex="1" parent="1">
          <mxGeometry x="640" y="610" width="100" height="20" as="geometry" />
        </mxCell>
        <mxCell id="TsvvHcdtUDHw0XMrt-qg-28" value="&amp;nbsp; Alice&#39;s Public Key" style="text;html=1;align=center;verticalAlign=middle;resizable=0;points=[];autosize=1;strokeColor=none;fillColor=none;fontColor=#46495D;" vertex="1" parent="1">
          <mxGeometry x="561" y="673" width="120" height="20" as="geometry" />
        </mxCell>
        <mxCell id="TsvvHcdtUDHw0XMrt-qg-29" value="&amp;nbsp;Decrypted Using&amp;nbsp;" style="text;html=1;align=center;verticalAlign=middle;resizable=0;points=[];autosize=1;strokeColor=none;fillColor=none;fontColor=#46495D;" vertex="1" parent="1">
          <mxGeometry x="125" y="683" width="110" height="20" as="geometry" />
        </mxCell>
        <mxCell id="TsvvHcdtUDHw0XMrt-qg-30" value="&amp;nbsp; Alice&#39;s Private Key" style="text;html=1;align=center;verticalAlign=middle;resizable=0;points=[];autosize=1;strokeColor=none;fillColor=none;fontColor=#46495D;rotation=90;" vertex="1" parent="1">
          <mxGeometry x="68" y="617" width="120" height="20" as="geometry" />
        </mxCell>
        <mxCell id="TsvvHcdtUDHw0XMrt-qg-31" value="Ciphertext" style="text;html=1;align=center;verticalAlign=middle;resizable=0;points=[];autosize=1;strokeColor=none;fillColor=none;fontColor=#46495D;" vertex="1" parent="1">
          <mxGeometry x="390" y="220" width="70" height="20" as="geometry" />
        </mxCell>
        <mxCell id="TsvvHcdtUDHw0XMrt-qg-32" value="Ciphertext" style="text;html=1;align=center;verticalAlign=middle;resizable=0;points=[];autosize=1;strokeColor=none;fillColor=none;fontColor=#46495D;" vertex="1" parent="1">
          <mxGeometry x="365" y="750" width="70" height="20" as="geometry" />
        </mxCell>
        <mxCell id="TsvvHcdtUDHw0XMrt-qg-33" value="AFX#@BYDDHJKF&#39;NDNH#2@J%$" style="text;html=1;align=center;verticalAlign=middle;resizable=0;points=[];autosize=1;strokeColor=none;fillColor=none;fontColor=#46495D;" vertex="1" parent="1">
          <mxGeometry x="295" y="680" width="210" height="20" as="geometry" />
        </mxCell>
        <mxCell id="TsvvHcdtUDHw0XMrt-qg-35" value="AFX#@BYDDHJKF&#39;NDNH#2@J%$" style="text;html=1;align=center;verticalAlign=middle;resizable=0;points=[];autosize=1;strokeColor=none;fillColor=none;fontColor=#46495D;" vertex="1" parent="1">
          <mxGeometry x="315" y="150" width="210" height="20" as="geometry" />
        </mxCell>
        <mxCell id="TsvvHcdtUDHw0XMrt-qg-36" value="" style="rounded=0;whiteSpace=wrap;html=1;sketch=0;fontColor=#46495D;strokeColor=#788AA3;fillColor=#B2C9AB;" vertex="1" parent="1">
          <mxGeometry x="81" y="310" width="110" height="30" as="geometry" />
        </mxCell>
        <mxCell id="TsvvHcdtUDHw0XMrt-qg-37" value="Hey, Bob" style="text;html=1;align=center;verticalAlign=middle;resizable=0;points=[];autosize=1;strokeColor=none;fillColor=none;fontColor=#46495D;" vertex="1" parent="1">
          <mxGeometry x="106" y="315" width="60" height="20" as="geometry" />
        </mxCell>
        <mxCell id="TsvvHcdtUDHw0XMrt-qg-40" value="" style="rounded=0;whiteSpace=wrap;html=1;sketch=0;fontColor=#46495D;strokeColor=#788AA3;fillColor=#B2C9AB;" vertex="1" parent="1">
          <mxGeometry x="627" y="312" width="110" height="30" as="geometry" />
        </mxCell>
        <mxCell id="TsvvHcdtUDHw0XMrt-qg-41" value="Hey, Bob" style="text;html=1;align=center;verticalAlign=middle;resizable=0;points=[];autosize=1;strokeColor=none;fillColor=none;fontColor=#46495D;" vertex="1" parent="1">
          <mxGeometry x="650" y="317" width="60" height="20" as="geometry" />
        </mxCell>
        <mxCell id="TsvvHcdtUDHw0XMrt-qg-43" value="" style="rounded=0;whiteSpace=wrap;html=1;sketch=0;fontColor=#46495D;strokeColor=#788AA3;fillColor=#B2C9AB;" vertex="1" parent="1">
          <mxGeometry x="630" y="510" width="110" height="30" as="geometry" />
        </mxCell>
        <mxCell id="TsvvHcdtUDHw0XMrt-qg-44" value="Hello, Alice" style="text;html=1;align=center;verticalAlign=middle;resizable=0;points=[];autosize=1;strokeColor=none;fillColor=none;fontColor=#46495D;" vertex="1" parent="1">
          <mxGeometry x="648" y="515" width="70" height="20" as="geometry" />
        </mxCell>
        <mxCell id="TsvvHcdtUDHw0XMrt-qg-46" value="" style="rounded=0;whiteSpace=wrap;html=1;sketch=0;fontColor=#46495D;strokeColor=#788AA3;fillColor=#B2C9AB;" vertex="1" parent="1">
          <mxGeometry x="75" y="487" width="110" height="30" as="geometry" />
        </mxCell>
        <mxCell id="TsvvHcdtUDHw0XMrt-qg-47" value="Hello, Alice" style="text;html=1;align=center;verticalAlign=middle;resizable=0;points=[];autosize=1;strokeColor=none;fillColor=none;fontColor=#46495D;" vertex="1" parent="1">
          <mxGeometry x="93" y="492" width="70" height="20" as="geometry" />
        </mxCell>
      </root>
    </mxGraphModel>
  </diagram>
</mxfile>
